<?xml version="1.0" encoding="UTF-8"?>
<svg xmlns="http://www.w3.org/2000/svg" width="259" height="141">
   <defs>
      <style type="text/css">
    @namespace "http://www.w3.org/2000/svg";
    .line                 {fill: none; stroke: #132E1A; stroke-width: 1;}
    .bold-line            {stroke: #060E08; shape-rendering: crispEdges; stroke-width: 2;}
    .thin-line            {stroke: #0E060C; shape-rendering: crispEdges}
    .filled               {fill: #132E1A; stroke: none;}
    text.terminal         {font-family: Verdana, Sans-serif;
                            font-size: 12px;
                            fill: #060E08;
                            font-weight: bold;
                          }
    text.nonterminal      {font-family: Verdana, Sans-serif;
                            font-size: 12px;
                            fill: #06080E;
                            font-weight: normal;
                          }
    text.regexp           {font-family: Verdana, Sans-serif;
                            font-size: 12px;
                            fill: #0E060C;
                            font-weight: normal;
                          }
    rect, circle, polygon {fill: #132E1A; stroke: #132E1A;}
    rect.terminal         {fill: #c6e7ce; stroke: #132E1A; stroke-width: 1;}
    rect.nonterminal      {fill: #C6CEE7; stroke: #132E1A; stroke-width: 1;}
    rect.text             {fill: none; stroke: none;}
    polygon.regexp        {fill: #E7C6DF; stroke: #132E1A; stroke-width: 1;}
  </style>
   </defs>
   <polygon points="9 33 1 29 1 37"/>
   <polygon points="17 33 9 29 9 37"/>
   <rect x="31" y="19" width="38" height="32" rx="10"/>
   <rect x="29"
         y="17"
         width="38"
         height="32"
         class="terminal"
         rx="10"/>
   <text class="terminal" x="39" y="37">#x</text>
   <polygon points="129 35 136 19 184 19 191 35 184 51 136 51"/>
   <polygon points="127 33 134 17 182 17 189 33 182 49 134 49" class="regexp"/>
   <text class="regexp" x="142" y="37">[0-9]</text>
   <polygon points="129 79 136 63 180 63 187 79 180 95 136 95"/>
   <polygon points="127 77 134 61 178 61 185 77 178 93 134 93" class="regexp"/>
   <text class="regexp" x="142" y="81">[a-f]</text>
   <polygon points="129 123 136 107 182 107 189 123 182 139 136 139"/>
   <polygon points="127 121 134 105 180 105 187 121 180 137 134 137" class="regexp"/>
   <text class="regexp" x="142" y="125">[A-F]</text>
   <path class="line"
         d="m17 33 h2 m0 0 h10 m38 0 h10 m40 0 h10 m62 0 h10 m-102 0 h20 m82 0 h20 m-122 0 q10 0 10 10 m102 0 q0 -10 10 -10 m-112 10 v24 m102 0 v-24 m-102 24 q0 10 10 10 m82 0 q10 0 10 -10 m-92 10 h10 m58 0 h10 m0 0 h4 m-92 -10 v20 m102 0 v-20 m-102 20 v24 m102 0 v-24 m-102 24 q0 10 10 10 m82 0 q10 0 10 -10 m-92 10 h10 m60 0 h10 m0 0 h2 m-122 -88 l20 0 m-1 0 q-9 0 -9 -10 l0 -12 q0 -10 10 -10 m122 32 l20 0 m-20 0 q10 0 10 -10 l0 -12 q0 -10 -10 -10 m-122 0 h10 m0 0 h112 m23 32 h-3"/>
   <polygon points="249 33 257 29 257 37"/>
   <polygon points="249 33 241 29 241 37"/>
</svg>
