<?xml version="1.0" encoding="UTF-8"?>
<svg xmlns="http://www.w3.org/2000/svg" width="403" height="185">
   <defs>
      <style type="text/css">
    @namespace "http://www.w3.org/2000/svg";
    .line                 {fill: none; stroke: #132E1A; stroke-width: 1;}
    .bold-line            {stroke: #060E08; shape-rendering: crispEdges; stroke-width: 2;}
    .thin-line            {stroke: #0E060C; shape-rendering: crispEdges}
    .filled               {fill: #132E1A; stroke: none;}
    text.terminal         {font-family: Verdana, Sans-serif;
                            font-size: 12px;
                            fill: #060E08;
                            font-weight: bold;
                          }
    text.nonterminal      {font-family: Verdana, Sans-serif;
                            font-size: 12px;
                            fill: #06080E;
                            font-weight: normal;
                          }
    text.regexp           {font-family: Verdana, Sans-serif;
                            font-size: 12px;
                            fill: #0E060C;
                            font-weight: normal;
                          }
    rect, circle, polygon {fill: #132E1A; stroke: #132E1A;}
    rect.terminal         {fill: #c6e7ce; stroke: #132E1A; stroke-width: 1;}
    rect.nonterminal      {fill: #C6CEE7; stroke: #132E1A; stroke-width: 1;}
    rect.text             {fill: none; stroke: none;}
    polygon.regexp        {fill: #E7C6DF; stroke: #132E1A; stroke-width: 1;}
  </style>
   </defs>
   <polygon points="9 33 1 29 1 37"/>
   <polygon points="17 33 9 29 9 37"/>
   <rect x="51" y="19" width="26" height="32" rx="10"/>
   <rect x="49"
         y="17"
         width="26"
         height="32"
         class="terminal"
         rx="10"/>
   <text class="terminal" x="59" y="37">[</text>
   <rect x="51" y="63" width="36" height="32" rx="10"/>
   <rect x="49"
         y="61"
         width="36"
         height="32"
         class="terminal"
         rx="10"/>
   <text class="terminal" x="59" y="81">[^</text>
   <a xmlns:xlink="http://www.w3.org/1999/xlink"
      xlink:href="#Char"
      xlink:title="Char">
      <rect x="167" y="19" width="50" height="32"/>
      <rect x="165" y="17" width="50" height="32" class="nonterminal"/>
      <text class="nonterminal" x="175" y="37">Char</text>
   </a>
   <a xmlns:xlink="http://www.w3.org/1999/xlink"
      xlink:href="#CharCode"
      xlink:title="CharCode">
      <rect x="167" y="63" width="82" height="32"/>
      <rect x="165" y="61" width="82" height="32" class="nonterminal"/>
      <text class="nonterminal" x="175" y="81">CharCode</text>
   </a>
   <a xmlns:xlink="http://www.w3.org/1999/xlink"
      xlink:href="#CharRange"
      xlink:title="CharRange">
      <rect x="167" y="107" width="90" height="32"/>
      <rect x="165" y="105" width="90" height="32" class="nonterminal"/>
      <text class="nonterminal" x="175" y="125">CharRange</text>
   </a>
   <a xmlns:xlink="http://www.w3.org/1999/xlink"
      xlink:href="#CharCodeRange"
      xlink:title="CharCodeRange">
      <rect x="167" y="151" width="122" height="32"/>
      <rect x="165" y="149" width="122" height="32" class="nonterminal"/>
      <text class="nonterminal" x="175" y="169">CharCodeRange</text>
   </a>
   <rect x="349" y="19" width="26" height="32" rx="10"/>
   <rect x="347"
         y="17"
         width="26"
         height="32"
         class="terminal"
         rx="10"/>
   <text class="terminal" x="357" y="37">]</text>
   <path class="line"
         d="m17 33 h2 m20 0 h10 m26 0 h10 m0 0 h10 m-76 0 h20 m56 0 h20 m-96 0 q10 0 10 10 m76 0 q0 -10 10 -10 m-86 10 v24 m76 0 v-24 m-76 24 q0 10 10 10 m56 0 q10 0 10 -10 m-66 10 h10 m36 0 h10 m60 -44 h10 m50 0 h10 m0 0 h72 m-162 0 h20 m142 0 h20 m-182 0 q10 0 10 10 m162 0 q0 -10 10 -10 m-172 10 v24 m162 0 v-24 m-162 24 q0 10 10 10 m142 0 q10 0 10 -10 m-152 10 h10 m82 0 h10 m0 0 h40 m-152 -10 v20 m162 0 v-20 m-162 20 v24 m162 0 v-24 m-162 24 q0 10 10 10 m142 0 q10 0 10 -10 m-152 10 h10 m90 0 h10 m0 0 h32 m-152 -10 v20 m162 0 v-20 m-162 20 v24 m162 0 v-24 m-162 24 q0 10 10 10 m142 0 q10 0 10 -10 m-152 10 h10 m122 0 h10 m-182 -132 l20 0 m-1 0 q-9 0 -9 -10 l0 -12 q0 -10 10 -10 m182 32 l20 0 m-20 0 q10 0 10 -10 l0 -12 q0 -10 -10 -10 m-182 0 h10 m0 0 h172 m20 32 h10 m26 0 h10 m3 0 h-3"/>
   <polygon points="393 33 401 29 401 37"/>
   <polygon points="393 33 385 29 385 37"/>
</svg>
