<?xml version="1.0" encoding="UTF-8"?>
<svg xmlns="http://www.w3.org/2000/svg" width="289" height="37">
   <defs>
      <style type="text/css">
    @namespace "http://www.w3.org/2000/svg";
    .line                 {fill: none; stroke: #132E1A; stroke-width: 1;}
    .bold-line            {stroke: #060E08; shape-rendering: crispEdges; stroke-width: 2;}
    .thin-line            {stroke: #0E060C; shape-rendering: crispEdges}
    .filled               {fill: #132E1A; stroke: none;}
    text.terminal         {font-family: Verdana, Sans-serif;
                            font-size: 12px;
                            fill: #060E08;
                            font-weight: bold;
                          }
    text.nonterminal      {font-family: Verdana, Sans-serif;
                            font-size: 12px;
                            fill: #06080E;
                            font-weight: normal;
                          }
    text.regexp           {font-family: Verdana, Sans-serif;
                            font-size: 12px;
                            fill: #0E060C;
                            font-weight: normal;
                          }
    rect, circle, polygon {fill: #132E1A; stroke: #132E1A;}
    rect.terminal         {fill: #c6e7ce; stroke: #132E1A; stroke-width: 1;}
    rect.nonterminal      {fill: #C6CEE7; stroke: #132E1A; stroke-width: 1;}
    rect.text             {fill: none; stroke: none;}
    polygon.regexp        {fill: #E7C6DF; stroke: #132E1A; stroke-width: 1;}
  </style>
   </defs>
   <polygon points="9 17 1 13 1 21"/>
   <polygon points="17 17 9 13 9 21"/>
   <a xmlns:xlink="http://www.w3.org/1999/xlink"
      xlink:href="#CharCode"
      xlink:title="CharCode">
      <rect x="31" y="3" width="82" height="32"/>
      <rect x="29" y="1" width="82" height="32" class="nonterminal"/>
      <text class="nonterminal" x="39" y="21">CharCode</text>
   </a>
   <rect x="133" y="3" width="26" height="32" rx="10"/>
   <rect x="131"
         y="1"
         width="26"
         height="32"
         class="terminal"
         rx="10"/>
   <text class="terminal" x="141" y="21">-</text>
   <a xmlns:xlink="http://www.w3.org/1999/xlink"
      xlink:href="#CharCode"
      xlink:title="CharCode">
      <rect x="179" y="3" width="82" height="32"/>
      <rect x="177" y="1" width="82" height="32" class="nonterminal"/>
      <text class="nonterminal" x="187" y="21">CharCode</text>
   </a>
   <path class="line"
         d="m17 17 h2 m0 0 h10 m82 0 h10 m0 0 h10 m26 0 h10 m0 0 h10 m82 0 h10 m3 0 h-3"/>
   <polygon points="279 17 287 13 287 21"/>
   <polygon points="279 17 271 13 271 21"/>
</svg>
