<?xml version="1.0" encoding="UTF-8"?>
<svg xmlns="http://www.w3.org/2000/svg" width="353" height="213">
   <defs>
      <style type="text/css">
    @namespace "http://www.w3.org/2000/svg";
    .line                 {fill: none; stroke: #132E1A; stroke-width: 1;}
    .bold-line            {stroke: #060E08; shape-rendering: crispEdges; stroke-width: 2;}
    .thin-line            {stroke: #0E060C; shape-rendering: crispEdges}
    .filled               {fill: #132E1A; stroke: none;}
    text.terminal         {font-family: Verdana, Sans-serif;
                            font-size: 12px;
                            fill: #060E08;
                            font-weight: bold;
                          }
    text.nonterminal      {font-family: Verdana, Sans-serif;
                            font-size: 12px;
                            fill: #06080E;
                            font-weight: normal;
                          }
    text.regexp           {font-family: Verdana, Sans-serif;
                            font-size: 12px;
                            fill: #0E060C;
                            font-weight: normal;
                          }
    rect, circle, polygon {fill: #132E1A; stroke: #132E1A;}
    rect.terminal         {fill: #c6e7ce; stroke: #132E1A; stroke-width: 1;}
    rect.nonterminal      {fill: #C6CEE7; stroke: #132E1A; stroke-width: 1;}
    rect.text             {fill: none; stroke: none;}
    polygon.regexp        {fill: #E7C6DF; stroke: #132E1A; stroke-width: 1;}
  </style>
   </defs>
   <polygon points="9 17 1 13 1 21"/>
   <polygon points="17 17 9 13 9 21"/>
   <a xmlns:xlink="http://www.w3.org/1999/xlink"
      xlink:href="#StringLiteral"
      xlink:title="StringLiteral">
      <rect x="51" y="3" width="96" height="32"/>
      <rect x="49" y="1" width="96" height="32" class="nonterminal"/>
      <text class="nonterminal" x="59" y="21">StringLiteral</text>
   </a>
   <rect x="51" y="47" width="26" height="32" rx="10"/>
   <rect x="49"
         y="45"
         width="26"
         height="32"
         class="terminal"
         rx="10"/>
   <text class="terminal" x="59" y="65">[</text>
   <a xmlns:xlink="http://www.w3.org/1999/xlink"
      xlink:href="#Char"
      xlink:title="Char">
      <rect x="117" y="47" width="50" height="32"/>
      <rect x="115" y="45" width="50" height="32" class="nonterminal"/>
      <text class="nonterminal" x="125" y="65">Char</text>
   </a>
   <a xmlns:xlink="http://www.w3.org/1999/xlink"
      xlink:href="#CharCode"
      xlink:title="CharCode">
      <rect x="117" y="91" width="82" height="32"/>
      <rect x="115" y="89" width="82" height="32" class="nonterminal"/>
      <text class="nonterminal" x="125" y="109">CharCode</text>
   </a>
   <a xmlns:xlink="http://www.w3.org/1999/xlink"
      xlink:href="#CharRange"
      xlink:title="CharRange">
      <rect x="117" y="135" width="90" height="32"/>
      <rect x="115" y="133" width="90" height="32" class="nonterminal"/>
      <text class="nonterminal" x="125" y="153">CharRange</text>
   </a>
   <a xmlns:xlink="http://www.w3.org/1999/xlink"
      xlink:href="#CharCodeRange"
      xlink:title="CharCodeRange">
      <rect x="117" y="179" width="122" height="32"/>
      <rect x="115" y="177" width="122" height="32" class="nonterminal"/>
      <text class="nonterminal" x="125" y="197">CharCodeRange</text>
   </a>
   <rect x="279" y="47" width="26" height="32" rx="10"/>
   <rect x="277"
         y="45"
         width="26"
         height="32"
         class="terminal"
         rx="10"/>
   <text class="terminal" x="287" y="65">]</text>
   <path class="line"
         d="m17 17 h2 m20 0 h10 m96 0 h10 m0 0 h158 m-294 0 h20 m274 0 h20 m-314 0 q10 0 10 10 m294 0 q0 -10 10 -10 m-304 10 v24 m294 0 v-24 m-294 24 q0 10 10 10 m274 0 q10 0 10 -10 m-284 10 h10 m26 0 h10 m20 0 h10 m50 0 h10 m0 0 h72 m-162 0 h20 m142 0 h20 m-182 0 q10 0 10 10 m162 0 q0 -10 10 -10 m-172 10 v24 m162 0 v-24 m-162 24 q0 10 10 10 m142 0 q10 0 10 -10 m-152 10 h10 m82 0 h10 m0 0 h40 m-152 -10 v20 m162 0 v-20 m-162 20 v24 m162 0 v-24 m-162 24 q0 10 10 10 m142 0 q10 0 10 -10 m-152 10 h10 m90 0 h10 m0 0 h32 m-152 -10 v20 m162 0 v-20 m-162 20 v24 m162 0 v-24 m-162 24 q0 10 10 10 m142 0 q10 0 10 -10 m-152 10 h10 m122 0 h10 m20 -132 h10 m26 0 h10 m23 -44 h-3"/>
   <polygon points="343 17 351 13 351 21"/>
   <polygon points="343 17 335 13 335 21"/>
</svg>
