<?xml version="1.0" encoding="UTF-8"?>
<svg xmlns="http://www.w3.org/2000/svg" width="631" height="69">
   <defs>
      <style type="text/css">
    @namespace "http://www.w3.org/2000/svg";
    .line                 {fill: none; stroke: #132E1A; stroke-width: 1;}
    .bold-line            {stroke: #060E08; shape-rendering: crispEdges; stroke-width: 2;}
    .thin-line            {stroke: #0E060C; shape-rendering: crispEdges}
    .filled               {fill: #132E1A; stroke: none;}
    text.terminal         {font-family: Verdana, Sans-serif;
                            font-size: 12px;
                            fill: #060E08;
                            font-weight: bold;
                          }
    text.nonterminal      {font-family: Verdana, Sans-serif;
                            font-size: 12px;
                            fill: #06080E;
                            font-weight: normal;
                          }
    text.regexp           {font-family: Verdana, Sans-serif;
                            font-size: 12px;
                            fill: #0E060C;
                            font-weight: normal;
                          }
    rect, circle, polygon {fill: #132E1A; stroke: #132E1A;}
    rect.terminal         {fill: #c6e7ce; stroke: #132E1A; stroke-width: 1;}
    rect.nonterminal      {fill: #C6CEE7; stroke: #132E1A; stroke-width: 1;}
    rect.text             {fill: none; stroke: none;}
    polygon.regexp        {fill: #E7C6DF; stroke: #132E1A; stroke-width: 1;}
  </style>
   </defs>
   <polygon points="9 17 1 13 1 21"/>
   <polygon points="17 17 9 13 9 21"/>
   <a xmlns:xlink="http://www.w3.org/1999/xlink"
      xlink:href="#Prolog"
      xlink:title="Prolog">
      <rect x="31" y="3" width="60" height="32"/>
      <rect x="29" y="1" width="60" height="32" class="nonterminal"/>
      <text class="nonterminal" x="39" y="21">Prolog</text>
   </a>
   <a xmlns:xlink="http://www.w3.org/1999/xlink"
      xlink:href="#SyntaxDefinition"
      xlink:title="SyntaxDefinition">
      <rect x="111" y="3" width="124" height="32"/>
      <rect x="109" y="1" width="124" height="32" class="nonterminal"/>
      <text class="nonterminal" x="119" y="21">SyntaxDefinition</text>
   </a>
   <a xmlns:xlink="http://www.w3.org/1999/xlink"
      xlink:href="#LexicalDefinition"
      xlink:title="LexicalDefinition">
      <rect x="275" y="35" width="122" height="32"/>
      <rect x="273" y="33" width="122" height="32" class="nonterminal"/>
      <text class="nonterminal" x="283" y="53">LexicalDefinition</text>
   </a>
   <a xmlns:xlink="http://www.w3.org/1999/xlink"
      xlink:href="#Encore"
      xlink:title="Encore">
      <rect x="457" y="35" width="62" height="32"/>
      <rect x="455" y="33" width="62" height="32" class="nonterminal"/>
      <text class="nonterminal" x="465" y="53">Encore</text>
   </a>
   <a xmlns:xlink="http://www.w3.org/1999/xlink"
      xlink:href="#EOF"
      xlink:title="EOF">
      <rect x="559" y="3" width="44" height="32"/>
      <rect x="557" y="1" width="44" height="32" class="nonterminal"/>
      <text class="nonterminal" x="567" y="21">EOF</text>
   </a>
   <path class="line"
         d="m17 17 h2 m0 0 h10 m60 0 h10 m0 0 h10 m124 0 h10 m20 0 h10 m0 0 h132 m-162 0 h20 m142 0 h20 m-182 0 q10 0 10 10 m162 0 q0 -10 10 -10 m-172 10 v12 m162 0 v-12 m-162 12 q0 10 10 10 m142 0 q10 0 10 -10 m-152 10 h10 m122 0 h10 m40 -32 h10 m0 0 h72 m-102 0 h20 m82 0 h20 m-122 0 q10 0 10 10 m102 0 q0 -10 10 -10 m-112 10 v12 m102 0 v-12 m-102 12 q0 10 10 10 m82 0 q10 0 10 -10 m-92 10 h10 m62 0 h10 m20 -32 h10 m44 0 h10 m3 0 h-3"/>
   <polygon points="621 17 629 13 629 21"/>
   <polygon points="621 17 613 13 613 21"/>
</svg>
