<?xml version="1.0" encoding="UTF-8"?>
<svg xmlns="http://www.w3.org/2000/svg" width="359" height="203">
   <defs>
      <style type="text/css">
    @namespace "http://www.w3.org/2000/svg";
    .line                 {fill: none; stroke: #132E1A; stroke-width: 1;}
    .bold-line            {stroke: #060E08; shape-rendering: crispEdges; stroke-width: 2;}
    .thin-line            {stroke: #0E060C; shape-rendering: crispEdges}
    .filled               {fill: #132E1A; stroke: none;}
    text.terminal         {font-family: Verdana, Sans-serif;
                            font-size: 12px;
                            fill: #060E08;
                            font-weight: bold;
                          }
    text.nonterminal      {font-family: Verdana, Sans-serif;
                            font-size: 12px;
                            fill: #06080E;
                            font-weight: normal;
                          }
    text.regexp           {font-family: Verdana, Sans-serif;
                            font-size: 12px;
                            fill: #0E060C;
                            font-weight: normal;
                          }
    rect, circle, polygon {fill: #132E1A; stroke: #132E1A;}
    rect.terminal         {fill: #c6e7ce; stroke: #132E1A; stroke-width: 1;}
    rect.nonterminal      {fill: #C6CEE7; stroke: #132E1A; stroke-width: 1;}
    rect.text             {fill: none; stroke: none;}
    polygon.regexp        {fill: #E7C6DF; stroke: #132E1A; stroke-width: 1;}
  </style>
   </defs>
   <polygon points="9 183 1 179 1 187"/>
   <polygon points="17 183 9 179 9 187"/>
   <rect x="31" y="169" width="110" height="32" rx="10"/>
   <rect x="29"
         y="167"
         width="110"
         height="32"
         class="terminal"
         rx="10"/>
   <text class="terminal" x="39" y="187">&lt;?TOKENS?&gt;</text>
   <a xmlns:xlink="http://www.w3.org/1999/xlink"
      xlink:href="#LexicalProduction"
      xlink:title="LexicalProduction">
      <rect x="181" y="135" width="130" height="32"/>
      <rect x="179" y="133" width="130" height="32" class="nonterminal"/>
      <text class="nonterminal" x="189" y="153">LexicalProduction</text>
   </a>
   <a xmlns:xlink="http://www.w3.org/1999/xlink"
      xlink:href="#Preference"
      xlink:title="Preference">
      <rect x="181" y="91" width="88" height="32"/>
      <rect x="179" y="89" width="88" height="32" class="nonterminal"/>
      <text class="nonterminal" x="189" y="109">Preference</text>
   </a>
   <a xmlns:xlink="http://www.w3.org/1999/xlink"
      xlink:href="#Delimiter"
      xlink:title="Delimiter">
      <rect x="181" y="47" width="76" height="32"/>
      <rect x="179" y="45" width="76" height="32" class="nonterminal"/>
      <text class="nonterminal" x="189" y="65">Delimiter</text>
   </a>
   <a xmlns:xlink="http://www.w3.org/1999/xlink"
      xlink:href="#Equivalence"
      xlink:title="Equivalence">
      <rect x="181" y="3" width="96" height="32"/>
      <rect x="179" y="1" width="96" height="32" class="nonterminal"/>
      <text class="nonterminal" x="189" y="21">Equivalence</text>
   </a>
   <path class="line"
         d="m17 183 h2 m0 0 h10 m110 0 h10 m20 0 h10 m0 0 h140 m-170 0 l20 0 m-1 0 q-9 0 -9 -10 l0 -14 q0 -10 10 -10 m150 34 l20 0 m-20 0 q10 0 10 -10 l0 -14 q0 -10 -10 -10 m-150 0 h10 m130 0 h10 m-160 10 l0 -44 q0 -10 10 -10 m160 54 l0 -44 q0 -10 -10 -10 m-150 0 h10 m88 0 h10 m0 0 h42 m-160 10 l0 -44 q0 -10 10 -10 m160 54 l0 -44 q0 -10 -10 -10 m-150 0 h10 m76 0 h10 m0 0 h54 m-160 10 l0 -44 q0 -10 10 -10 m160 54 l0 -44 q0 -10 -10 -10 m-150 0 h10 m96 0 h10 m0 0 h34 m23 166 h-3"/>
   <polygon points="349 183 357 179 357 187"/>
   <polygon points="349 183 341 179 341 187"/>
</svg>
