<?xml version="1.0" encoding="UTF-8"?>
<svg xmlns="http://www.w3.org/2000/svg" width="389" height="119">
   <defs>
      <style type="text/css">
    @namespace "http://www.w3.org/2000/svg";
    .line                 {fill: none; stroke: #132E1A; stroke-width: 1;}
    .bold-line            {stroke: #060E08; shape-rendering: crispEdges; stroke-width: 2;}
    .thin-line            {stroke: #0E060C; shape-rendering: crispEdges}
    .filled               {fill: #132E1A; stroke: none;}
    text.terminal         {font-family: Verdana, Sans-serif;
                            font-size: 12px;
                            fill: #060E08;
                            font-weight: bold;
                          }
    text.nonterminal      {font-family: Verdana, Sans-serif;
                            font-size: 12px;
                            fill: #06080E;
                            font-weight: normal;
                          }
    text.regexp           {font-family: Verdana, Sans-serif;
                            font-size: 12px;
                            fill: #0E060C;
                            font-weight: normal;
                          }
    rect, circle, polygon {fill: #132E1A; stroke: #132E1A;}
    rect.terminal         {fill: #c6e7ce; stroke: #132E1A; stroke-width: 1;}
    rect.nonterminal      {fill: #C6CEE7; stroke: #132E1A; stroke-width: 1;}
    rect.text             {fill: none; stroke: none;}
    polygon.regexp        {fill: #E7C6DF; stroke: #132E1A; stroke-width: 1;}
  </style>
   </defs>
   <polygon points="9 51 1 47 1 55"/>
   <polygon points="17 51 9 47 9 55"/>
   <a xmlns:xlink="http://www.w3.org/1999/xlink"
      xlink:href="#LexicalItem"
      xlink:title="LexicalItem">
      <rect x="51" y="37" width="92" height="32"/>
      <rect x="49" y="35" width="92" height="32" class="nonterminal"/>
      <text class="nonterminal" x="59" y="55">LexicalItem</text>
   </a>
   <a xmlns:xlink="http://www.w3.org/1999/xlink"
      xlink:href="#LexicalItem"
      xlink:title="LexicalItem">
      <rect x="203" y="3" width="92" height="32"/>
      <rect x="201" y="1" width="92" height="32" class="nonterminal"/>
      <text class="nonterminal" x="211" y="21">LexicalItem</text>
   </a>
   <rect x="183" y="69" width="26" height="32" rx="10"/>
   <rect x="181"
         y="67"
         width="26"
         height="32"
         class="terminal"
         rx="10"/>
   <text class="terminal" x="191" y="87">-</text>
   <a xmlns:xlink="http://www.w3.org/1999/xlink"
      xlink:href="#LexicalItem"
      xlink:title="LexicalItem">
      <rect x="229" y="69" width="92" height="32"/>
      <rect x="227" y="67" width="92" height="32" class="nonterminal"/>
      <text class="nonterminal" x="237" y="87">LexicalItem</text>
   </a>
   <path class="line"
         d="m17 51 h2 m20 0 h10 m92 0 h10 m40 0 h10 m0 0 h102 m-132 0 l20 0 m-1 0 q-9 0 -9 -10 l0 -14 q0 -10 10 -10 m112 34 l20 0 m-20 0 q10 0 10 -10 l0 -14 q0 -10 -10 -10 m-112 0 h10 m92 0 h10 m20 34 h6 m-178 0 h20 m158 0 h20 m-198 0 q10 0 10 10 m178 0 q0 -10 10 -10 m-188 10 v12 m178 0 v-12 m-178 12 q0 10 10 10 m158 0 q10 0 10 -10 m-168 10 h10 m26 0 h10 m0 0 h10 m92 0 h10 m-310 -32 h20 m310 0 h20 m-350 0 q10 0 10 10 m330 0 q0 -10 10 -10 m-340 10 v46 m330 0 v-46 m-330 46 q0 10 10 10 m310 0 q10 0 10 -10 m-320 10 h10 m0 0 h300 m23 -66 h-3"/>
   <polygon points="379 51 387 47 387 55"/>
   <polygon points="379 51 371 47 371 55"/>
</svg>
