<?xml version="1.0" encoding="UTF-8"?>
<svg xmlns="http://www.w3.org/2000/svg" width="295" height="301">
   <defs>
      <style type="text/css">
    @namespace "http://www.w3.org/2000/svg";
    .line                 {fill: none; stroke: #132E1A; stroke-width: 1;}
    .bold-line            {stroke: #060E08; shape-rendering: crispEdges; stroke-width: 2;}
    .thin-line            {stroke: #0E060C; shape-rendering: crispEdges}
    .filled               {fill: #132E1A; stroke: none;}
    text.terminal         {font-family: Verdana, Sans-serif;
                            font-size: 12px;
                            fill: #060E08;
                            font-weight: bold;
                          }
    text.nonterminal      {font-family: Verdana, Sans-serif;
                            font-size: 12px;
                            fill: #06080E;
                            font-weight: normal;
                          }
    text.regexp           {font-family: Verdana, Sans-serif;
                            font-size: 12px;
                            fill: #0E060C;
                            font-weight: normal;
                          }
    rect, circle, polygon {fill: #132E1A; stroke: #132E1A;}
    rect.terminal         {fill: #c6e7ce; stroke: #132E1A; stroke-width: 1;}
    rect.nonterminal      {fill: #C6CEE7; stroke: #132E1A; stroke-width: 1;}
    rect.text             {fill: none; stroke: none;}
    polygon.regexp        {fill: #E7C6DF; stroke: #132E1A; stroke-width: 1;}
  </style>
   </defs>
   <polygon points="9 17 1 13 1 21"/>
   <polygon points="17 17 9 13 9 21"/>
   <a xmlns:xlink="http://www.w3.org/1999/xlink"
      xlink:href="#Name"
      xlink:title="Name">
      <rect x="71" y="3" width="56" height="32"/>
      <rect x="69" y="1" width="56" height="32" class="nonterminal"/>
      <text class="nonterminal" x="79" y="21">Name</text>
   </a>
   <rect x="71" y="47" width="24" height="32" rx="10"/>
   <rect x="69"
         y="45"
         width="24"
         height="32"
         class="terminal"
         rx="10"/>
   <text class="terminal" x="79" y="65">.</text>
   <a xmlns:xlink="http://www.w3.org/1999/xlink"
      xlink:href="#StringLiteral"
      xlink:title="StringLiteral">
      <rect x="51" y="91" width="96" height="32"/>
      <rect x="49" y="89" width="96" height="32" class="nonterminal"/>
      <text class="nonterminal" x="59" y="109">StringLiteral</text>
   </a>
   <rect x="51" y="135" width="26" height="32" rx="10"/>
   <rect x="49"
         y="133"
         width="26"
         height="32"
         class="terminal"
         rx="10"/>
   <text class="terminal" x="59" y="153">(</text>
   <a xmlns:xlink="http://www.w3.org/1999/xlink"
      xlink:href="#LexicalChoice"
      xlink:title="LexicalChoice">
      <rect x="97" y="135" width="104" height="32"/>
      <rect x="95" y="133" width="104" height="32" class="nonterminal"/>
      <text class="nonterminal" x="105" y="153">LexicalChoice</text>
   </a>
   <rect x="221" y="135" width="26" height="32" rx="10"/>
   <rect x="219"
         y="133"
         width="26"
         height="32"
         class="terminal"
         rx="10"/>
   <text class="terminal" x="229" y="153">)</text>
   <rect x="51" y="179" width="28" height="32" rx="10"/>
   <rect x="49"
         y="177"
         width="28"
         height="32"
         class="terminal"
         rx="10"/>
   <text class="terminal" x="59" y="197">$</text>
   <a xmlns:xlink="http://www.w3.org/1999/xlink"
      xlink:href="#CharCode"
      xlink:title="CharCode">
      <rect x="51" y="223" width="82" height="32"/>
      <rect x="49" y="221" width="82" height="32" class="nonterminal"/>
      <text class="nonterminal" x="59" y="241">CharCode</text>
   </a>
   <a xmlns:xlink="http://www.w3.org/1999/xlink"
      xlink:href="#CharClass"
      xlink:title="CharClass">
      <rect x="51" y="267" width="84" height="32"/>
      <rect x="49" y="265" width="84" height="32" class="nonterminal"/>
      <text class="nonterminal" x="59" y="285">CharClass</text>
   </a>
   <path class="line"
         d="m17 17 h2 m40 0 h10 m56 0 h10 m-96 0 h20 m76 0 h20 m-116 0 q10 0 10 10 m96 0 q0 -10 10 -10 m-106 10 v24 m96 0 v-24 m-96 24 q0 10 10 10 m76 0 q10 0 10 -10 m-86 10 h10 m24 0 h10 m0 0 h32 m20 -44 h100 m-236 0 h20 m216 0 h20 m-256 0 q10 0 10 10 m236 0 q0 -10 10 -10 m-246 10 v68 m236 0 v-68 m-236 68 q0 10 10 10 m216 0 q10 0 10 -10 m-226 10 h10 m96 0 h10 m0 0 h100 m-226 -10 v20 m236 0 v-20 m-236 20 v24 m236 0 v-24 m-236 24 q0 10 10 10 m216 0 q10 0 10 -10 m-226 10 h10 m26 0 h10 m0 0 h10 m104 0 h10 m0 0 h10 m26 0 h10 m-226 -10 v20 m236 0 v-20 m-236 20 v24 m236 0 v-24 m-236 24 q0 10 10 10 m216 0 q10 0 10 -10 m-226 10 h10 m28 0 h10 m0 0 h168 m-226 -10 v20 m236 0 v-20 m-236 20 v24 m236 0 v-24 m-236 24 q0 10 10 10 m216 0 q10 0 10 -10 m-226 10 h10 m82 0 h10 m0 0 h114 m-226 -10 v20 m236 0 v-20 m-236 20 v24 m236 0 v-24 m-236 24 q0 10 10 10 m216 0 q10 0 10 -10 m-226 10 h10 m84 0 h10 m0 0 h112 m23 -264 h-3"/>
   <polygon points="285 17 293 13 293 21"/>
   <polygon points="285 17 277 13 277 21"/>
</svg>
