<?xml version="1.0" encoding="UTF-8"?>
<svg xmlns="http://www.w3.org/2000/svg" width="555" height="115">
   <defs>
      <style type="text/css">
    @namespace "http://www.w3.org/2000/svg";
    .line                 {fill: none; stroke: #132E1A; stroke-width: 1;}
    .bold-line            {stroke: #060E08; shape-rendering: crispEdges; stroke-width: 2;}
    .thin-line            {stroke: #0E060C; shape-rendering: crispEdges}
    .filled               {fill: #132E1A; stroke: none;}
    text.terminal         {font-family: Verdana, Sans-serif;
                            font-size: 12px;
                            fill: #060E08;
                            font-weight: bold;
                          }
    text.nonterminal      {font-family: Verdana, Sans-serif;
                            font-size: 12px;
                            fill: #06080E;
                            font-weight: normal;
                          }
    text.regexp           {font-family: Verdana, Sans-serif;
                            font-size: 12px;
                            fill: #0E060C;
                            font-weight: normal;
                          }
    rect, circle, polygon {fill: #132E1A; stroke: #132E1A;}
    rect.terminal         {fill: #c6e7ce; stroke: #132E1A; stroke-width: 1;}
    rect.nonterminal      {fill: #C6CEE7; stroke: #132E1A; stroke-width: 1;}
    rect.text             {fill: none; stroke: none;}
    polygon.regexp        {fill: #E7C6DF; stroke: #132E1A; stroke-width: 1;}
  </style>
   </defs>
   <polygon points="9 51 1 47 1 55"/>
   <polygon points="17 51 9 47 9 55"/>
   <a xmlns:xlink="http://www.w3.org/1999/xlink"
      xlink:href="#Name"
      xlink:title="Name">
      <rect x="51" y="37" width="56" height="32"/>
      <rect x="49" y="35" width="56" height="32" class="nonterminal"/>
      <text class="nonterminal" x="59" y="55">Name</text>
   </a>
   <rect x="51" y="81" width="24" height="32" rx="10"/>
   <rect x="49"
         y="79"
         width="24"
         height="32"
         class="terminal"
         rx="10"/>
   <text class="terminal" x="59" y="99">.</text>
   <rect x="167" y="69" width="26" height="32" rx="10"/>
   <rect x="165"
         y="67"
         width="26"
         height="32"
         class="terminal"
         rx="10"/>
   <text class="terminal" x="175" y="87">?</text>
   <rect x="233" y="37" width="40" height="32" rx="10"/>
   <rect x="231"
         y="35"
         width="40"
         height="32"
         class="terminal"
         rx="10"/>
   <text class="terminal" x="241" y="55">::=</text>
   <a xmlns:xlink="http://www.w3.org/1999/xlink"
      xlink:href="#ContextChoice"
      xlink:title="ContextChoice">
      <rect x="293" y="37" width="112" height="32"/>
      <rect x="291" y="35" width="112" height="32" class="nonterminal"/>
      <text class="nonterminal" x="301" y="55">ContextChoice</text>
   </a>
   <a xmlns:xlink="http://www.w3.org/1999/xlink"
      xlink:href="#Option"
      xlink:title="Option">
      <rect x="445" y="3" width="62" height="32"/>
      <rect x="443" y="1" width="62" height="32" class="nonterminal"/>
      <text class="nonterminal" x="453" y="21">Option</text>
   </a>
   <path class="line"
         d="m17 51 h2 m20 0 h10 m56 0 h10 m-96 0 h20 m76 0 h20 m-116 0 q10 0 10 10 m96 0 q0 -10 10 -10 m-106 10 v24 m96 0 v-24 m-96 24 q0 10 10 10 m76 0 q10 0 10 -10 m-86 10 h10 m24 0 h10 m0 0 h32 m40 -44 h10 m0 0 h36 m-66 0 h20 m46 0 h20 m-86 0 q10 0 10 10 m66 0 q0 -10 10 -10 m-76 10 v12 m66 0 v-12 m-66 12 q0 10 10 10 m46 0 q10 0 10 -10 m-56 10 h10 m26 0 h10 m20 -32 h10 m40 0 h10 m0 0 h10 m112 0 h10 m20 0 h10 m0 0 h72 m-102 0 l20 0 m-1 0 q-9 0 -9 -10 l0 -14 q0 -10 10 -10 m82 34 l20 0 m-20 0 q10 0 10 -10 l0 -14 q0 -10 -10 -10 m-82 0 h10 m62 0 h10 m23 34 h-3"/>
   <polygon points="545 51 553 47 553 55"/>
   <polygon points="545 51 537 47 537 55"/>
</svg>
