<?xml version="1.0" encoding="UTF-8"?>
<svg xmlns="http://www.w3.org/2000/svg" width="241" height="301">
   <defs>
      <style type="text/css">
    @namespace "http://www.w3.org/2000/svg";
    .line                 {fill: none; stroke: #132E1A; stroke-width: 1;}
    .bold-line            {stroke: #060E08; shape-rendering: crispEdges; stroke-width: 2;}
    .thin-line            {stroke: #0E060C; shape-rendering: crispEdges}
    .filled               {fill: #132E1A; stroke: none;}
    text.terminal         {font-family: Verdana, Sans-serif;
                            font-size: 12px;
                            fill: #060E08;
                            font-weight: bold;
                          }
    text.nonterminal      {font-family: Verdana, Sans-serif;
                            font-size: 12px;
                            fill: #06080E;
                            font-weight: normal;
                          }
    text.regexp           {font-family: Verdana, Sans-serif;
                            font-size: 12px;
                            fill: #0E060C;
                            font-weight: normal;
                          }
    rect, circle, polygon {fill: #132E1A; stroke: #132E1A;}
    rect.terminal         {fill: #c6e7ce; stroke: #132E1A; stroke-width: 1;}
    rect.nonterminal      {fill: #C6CEE7; stroke: #132E1A; stroke-width: 1;}
    rect.text             {fill: none; stroke: none;}
    polygon.regexp        {fill: #E7C6DF; stroke: #132E1A; stroke-width: 1;}
  </style>
   </defs>
   <polygon points="9 17 1 13 1 21"/>
   <polygon points="17 17 9 13 9 21"/>
   <a xmlns:xlink="http://www.w3.org/1999/xlink"
      xlink:href="#NameStartChar"
      xlink:title="NameStartChar">
      <rect x="51" y="3" width="118" height="32"/>
      <rect x="49" y="1" width="118" height="32" class="nonterminal"/>
      <text class="nonterminal" x="59" y="21">NameStartChar</text>
   </a>
   <rect x="51" y="47" width="26" height="32" rx="10"/>
   <rect x="49"
         y="45"
         width="26"
         height="32"
         class="terminal"
         rx="10"/>
   <text class="terminal" x="59" y="65">-</text>
   <rect x="51" y="91" width="24" height="32" rx="10"/>
   <rect x="49"
         y="89"
         width="24"
         height="32"
         class="terminal"
         rx="10"/>
   <text class="terminal" x="59" y="109">.</text>
   <polygon points="51 151 58 135 106 135 113 151 106 167 58 167"/>
   <polygon points="49 149 56 133 104 133 111 149 104 165 56 165" class="regexp"/>
   <text class="regexp" x="64" y="153">[0-9]</text>
   <polygon points="51 195 58 179 118 179 125 195 118 211 58 211"/>
   <polygon points="49 193 56 177 116 177 123 193 116 209 56 209" class="regexp"/>
   <text class="regexp" x="64" y="197">[#xB7]</text>
   <polygon points="51 239 58 223 186 223 193 239 186 255 58 255"/>
   <polygon points="49 237 56 221 184 221 191 237 184 253 56 253" class="regexp"/>
   <text class="regexp" x="64" y="241">[#x0300-#x036F]</text>
   <polygon points="51 283 58 267 186 267 193 283 186 299 58 299"/>
   <polygon points="49 281 56 265 184 265 191 281 184 297 56 297" class="regexp"/>
   <text class="regexp" x="64" y="285">[#x203F-#x2040]</text>
   <path class="line"
         d="m17 17 h2 m20 0 h10 m118 0 h10 m0 0 h24 m-182 0 h20 m162 0 h20 m-202 0 q10 0 10 10 m182 0 q0 -10 10 -10 m-192 10 v24 m182 0 v-24 m-182 24 q0 10 10 10 m162 0 q10 0 10 -10 m-172 10 h10 m26 0 h10 m0 0 h116 m-172 -10 v20 m182 0 v-20 m-182 20 v24 m182 0 v-24 m-182 24 q0 10 10 10 m162 0 q10 0 10 -10 m-172 10 h10 m24 0 h10 m0 0 h118 m-172 -10 v20 m182 0 v-20 m-182 20 v24 m182 0 v-24 m-182 24 q0 10 10 10 m162 0 q10 0 10 -10 m-172 10 h10 m62 0 h10 m0 0 h80 m-172 -10 v20 m182 0 v-20 m-182 20 v24 m182 0 v-24 m-182 24 q0 10 10 10 m162 0 q10 0 10 -10 m-172 10 h10 m74 0 h10 m0 0 h68 m-172 -10 v20 m182 0 v-20 m-182 20 v24 m182 0 v-24 m-182 24 q0 10 10 10 m162 0 q10 0 10 -10 m-172 10 h10 m142 0 h10 m-172 -10 v20 m182 0 v-20 m-182 20 v24 m182 0 v-24 m-182 24 q0 10 10 10 m162 0 q10 0 10 -10 m-172 10 h10 m142 0 h10 m23 -264 h-3"/>
   <polygon points="231 17 239 13 239 21"/>
   <polygon points="231 17 223 13 223 21"/>
</svg>
