<?xml version="1.0" encoding="UTF-8"?>
<svg xmlns="http://www.w3.org/2000/svg" width="751" height="115">
   <defs>
      <style type="text/css">
    @namespace "http://www.w3.org/2000/svg";
    .line                 {fill: none; stroke: #132E1A; stroke-width: 1;}
    .bold-line            {stroke: #060E08; shape-rendering: crispEdges; stroke-width: 2;}
    .thin-line            {stroke: #0E060C; shape-rendering: crispEdges}
    .filled               {fill: #132E1A; stroke: none;}
    text.terminal         {font-family: Verdana, Sans-serif;
                            font-size: 12px;
                            fill: #060E08;
                            font-weight: bold;
                          }
    text.nonterminal      {font-family: Verdana, Sans-serif;
                            font-size: 12px;
                            fill: #06080E;
                            font-weight: normal;
                          }
    text.regexp           {font-family: Verdana, Sans-serif;
                            font-size: 12px;
                            fill: #0E060C;
                            font-weight: normal;
                          }
    rect, circle, polygon {fill: #132E1A; stroke: #132E1A;}
    rect.terminal         {fill: #c6e7ce; stroke: #132E1A; stroke-width: 1;}
    rect.nonterminal      {fill: #C6CEE7; stroke: #132E1A; stroke-width: 1;}
    rect.text             {fill: none; stroke: none;}
    polygon.regexp        {fill: #E7C6DF; stroke: #132E1A; stroke-width: 1;}
  </style>
   </defs>
   <polygon points="9 51 1 47 1 55"/>
   <polygon points="17 51 9 47 9 55"/>
   <rect x="31" y="37" width="36" height="32" rx="10"/>
   <rect x="29"
         y="35"
         width="36"
         height="32"
         class="terminal"
         rx="10"/>
   <text class="terminal" x="39" y="55">/*</text>
   <a xmlns:xlink="http://www.w3.org/1999/xlink"
      xlink:href="#Space"
      xlink:title="Space">
      <rect x="107" y="3" width="58" height="32"/>
      <rect x="105" y="1" width="58" height="32" class="nonterminal"/>
      <text class="nonterminal" x="115" y="21">Space</text>
   </a>
   <rect x="205" y="37" width="38" height="32" rx="10"/>
   <rect x="203"
         y="35"
         width="38"
         height="32"
         class="terminal"
         rx="10"/>
   <text class="terminal" x="213" y="55">ws</text>
   <rect x="263" y="37" width="24" height="32" rx="10"/>
   <rect x="261"
         y="35"
         width="24"
         height="32"
         class="terminal"
         rx="10"/>
   <text class="terminal" x="271" y="55">:</text>
   <a xmlns:xlink="http://www.w3.org/1999/xlink"
      xlink:href="#Space"
      xlink:title="Space">
      <rect x="327" y="3" width="58" height="32"/>
      <rect x="325" y="1" width="58" height="32" class="nonterminal"/>
      <text class="nonterminal" x="335" y="21">Space</text>
   </a>
   <rect x="445" y="37" width="68" height="32" rx="10"/>
   <rect x="443"
         y="35"
         width="68"
         height="32"
         class="terminal"
         rx="10"/>
   <text class="terminal" x="453" y="55">explicit</text>
   <rect x="445" y="81" width="84" height="32" rx="10"/>
   <rect x="443"
         y="79"
         width="84"
         height="32"
         class="terminal"
         rx="10"/>
   <text class="terminal" x="453" y="99">definition</text>
   <a xmlns:xlink="http://www.w3.org/1999/xlink"
      xlink:href="#Space"
      xlink:title="Space">
      <rect x="589" y="3" width="58" height="32"/>
      <rect x="587" y="1" width="58" height="32" class="nonterminal"/>
      <text class="nonterminal" x="597" y="21">Space</text>
   </a>
   <rect x="687" y="37" width="36" height="32" rx="10"/>
   <rect x="685"
         y="35"
         width="36"
         height="32"
         class="terminal"
         rx="10"/>
   <text class="terminal" x="695" y="55">*/</text>
   <path class="line"
         d="m17 51 h2 m0 0 h10 m36 0 h10 m20 0 h10 m0 0 h68 m-98 0 l20 0 m-1 0 q-9 0 -9 -10 l0 -14 q0 -10 10 -10 m78 34 l20 0 m-20 0 q10 0 10 -10 l0 -14 q0 -10 -10 -10 m-78 0 h10 m58 0 h10 m20 34 h10 m38 0 h10 m0 0 h10 m24 0 h10 m20 0 h10 m0 0 h68 m-98 0 l20 0 m-1 0 q-9 0 -9 -10 l0 -14 q0 -10 10 -10 m78 34 l20 0 m-20 0 q10 0 10 -10 l0 -14 q0 -10 -10 -10 m-78 0 h10 m58 0 h10 m40 34 h10 m68 0 h10 m0 0 h16 m-124 0 h20 m104 0 h20 m-144 0 q10 0 10 10 m124 0 q0 -10 10 -10 m-134 10 v24 m124 0 v-24 m-124 24 q0 10 10 10 m104 0 q10 0 10 -10 m-114 10 h10 m84 0 h10 m40 -44 h10 m0 0 h68 m-98 0 l20 0 m-1 0 q-9 0 -9 -10 l0 -14 q0 -10 10 -10 m78 34 l20 0 m-20 0 q10 0 10 -10 l0 -14 q0 -10 -10 -10 m-78 0 h10 m58 0 h10 m20 34 h10 m36 0 h10 m3 0 h-3"/>
   <polygon points="741 51 749 47 749 55"/>
   <polygon points="741 51 733 47 733 55"/>
</svg>
