<?xml version="1.0" encoding="UTF-8"?>
<svg xmlns="http://www.w3.org/2000/svg" width="435" height="97">
   <defs>
      <style type="text/css">
    @namespace "http://www.w3.org/2000/svg";
    .line                 {fill: none; stroke: #132E1A; stroke-width: 1;}
    .bold-line            {stroke: #060E08; shape-rendering: crispEdges; stroke-width: 2;}
    .thin-line            {stroke: #0E060C; shape-rendering: crispEdges}
    .filled               {fill: #132E1A; stroke: none;}
    text.terminal         {font-family: Verdana, Sans-serif;
                            font-size: 12px;
                            fill: #060E08;
                            font-weight: bold;
                          }
    text.nonterminal      {font-family: Verdana, Sans-serif;
                            font-size: 12px;
                            fill: #06080E;
                            font-weight: normal;
                          }
    text.regexp           {font-family: Verdana, Sans-serif;
                            font-size: 12px;
                            fill: #0E060C;
                            font-weight: normal;
                          }
    rect, circle, polygon {fill: #132E1A; stroke: #132E1A;}
    rect.terminal         {fill: #c6e7ce; stroke: #132E1A; stroke-width: 1;}
    rect.nonterminal      {fill: #C6CEE7; stroke: #132E1A; stroke-width: 1;}
    rect.text             {fill: none; stroke: none;}
    polygon.regexp        {fill: #E7C6DF; stroke: #132E1A; stroke-width: 1;}
  </style>
   </defs>
   <polygon points="9 33 1 29 1 37"/>
   <polygon points="17 33 9 29 9 37"/>
   <a xmlns:xlink="http://www.w3.org/1999/xlink"
      xlink:href="#NameOrString"
      xlink:title="NameOrString">
      <rect x="31" y="19" width="108" height="32"/>
      <rect x="29" y="17" width="108" height="32" class="nonterminal"/>
      <text class="nonterminal" x="39" y="37">NameOrString</text>
   </a>
   <rect x="179" y="19" width="40" height="32" rx="10"/>
   <rect x="177"
         y="17"
         width="40"
         height="32"
         class="terminal"
         rx="10"/>
   <text class="terminal" x="187" y="37">&gt;&gt;</text>
   <rect x="179" y="63" width="40" height="32" rx="10"/>
   <rect x="177"
         y="61"
         width="40"
         height="32"
         class="terminal"
         rx="10"/>
   <text class="terminal" x="187" y="81">&lt;&lt;</text>
   <a xmlns:xlink="http://www.w3.org/1999/xlink"
      xlink:href="#NameOrString"
      xlink:title="NameOrString">
      <rect x="279" y="19" width="108" height="32"/>
      <rect x="277" y="17" width="108" height="32" class="nonterminal"/>
      <text class="nonterminal" x="287" y="37">NameOrString</text>
   </a>
   <path class="line"
         d="m17 33 h2 m0 0 h10 m108 0 h10 m20 0 h10 m40 0 h10 m-80 0 h20 m60 0 h20 m-100 0 q10 0 10 10 m80 0 q0 -10 10 -10 m-90 10 v24 m80 0 v-24 m-80 24 q0 10 10 10 m60 0 q10 0 10 -10 m-70 10 h10 m40 0 h10 m40 -44 h10 m108 0 h10 m-148 0 l20 0 m-1 0 q-9 0 -9 -10 l0 -12 q0 -10 10 -10 m128 32 l20 0 m-20 0 q10 0 10 -10 l0 -12 q0 -10 -10 -10 m-128 0 h10 m0 0 h118 m23 32 h-3"/>
   <polygon points="425 33 433 29 433 37"/>
   <polygon points="425 33 417 29 417 37"/>
</svg>
