<?xml version="1.0" encoding="UTF-8"?>
<svg xmlns="http://www.w3.org/2000/svg" width="253" height="185">
   <defs>
      <style type="text/css">
    @namespace "http://www.w3.org/2000/svg";
    .line                 {fill: none; stroke: #132E1A; stroke-width: 1;}
    .bold-line            {stroke: #060E08; shape-rendering: crispEdges; stroke-width: 2;}
    .thin-line            {stroke: #0E060C; shape-rendering: crispEdges}
    .filled               {fill: #132E1A; stroke: none;}
    text.terminal         {font-family: Verdana, Sans-serif;
                            font-size: 12px;
                            fill: #060E08;
                            font-weight: bold;
                          }
    text.nonterminal      {font-family: Verdana, Sans-serif;
                            font-size: 12px;
                            fill: #06080E;
                            font-weight: normal;
                          }
    text.regexp           {font-family: Verdana, Sans-serif;
                            font-size: 12px;
                            fill: #0E060C;
                            font-weight: normal;
                          }
    rect, circle, polygon {fill: #132E1A; stroke: #132E1A;}
    rect.terminal         {fill: #c6e7ce; stroke: #132E1A; stroke-width: 1;}
    rect.nonterminal      {fill: #C6CEE7; stroke: #132E1A; stroke-width: 1;}
    rect.text             {fill: none; stroke: none;}
    polygon.regexp        {fill: #E7C6DF; stroke: #132E1A; stroke-width: 1;}
  </style>
   </defs>
   <polygon points="9 33 1 29 1 37"/>
   <polygon points="17 33 9 29 9 37"/>
   <polygon points="91 35 98 19 150 19 157 35 150 51 98 51"/>
   <polygon points="89 33 96 17 148 17 155 33 148 49 96 49" class="regexp"/>
   <text class="regexp" x="104" y="37">[#x9]</text>
   <polygon points="91 79 98 63 150 63 157 79 150 95 98 95"/>
   <polygon points="89 77 96 61 148 61 155 77 148 93 96 93" class="regexp"/>
   <text class="regexp" x="104" y="81">[#xD]</text>
   <polygon points="91 123 98 107 158 107 165 123 158 139 98 139"/>
   <polygon points="89 121 96 105 156 105 163 121 156 137 96 137" class="regexp"/>
   <text class="regexp" x="104" y="125">[#x20]</text>
   <polygon points="51 167 58 151 110 151 117 167 110 183 58 183"/>
   <polygon points="49 165 56 149 108 149 115 165 108 181 56 181" class="regexp"/>
   <text class="regexp" x="64" y="169">[#xA]</text>
   <path class="line"
         d="m17 33 h2 m60 0 h10 m66 0 h10 m0 0 h8 m-114 0 h20 m94 0 h20 m-134 0 q10 0 10 10 m114 0 q0 -10 10 -10 m-124 10 v24 m114 0 v-24 m-114 24 q0 10 10 10 m94 0 q10 0 10 -10 m-104 10 h10 m66 0 h10 m0 0 h8 m-104 -10 v20 m114 0 v-20 m-114 20 v24 m114 0 v-24 m-114 24 q0 10 10 10 m94 0 q10 0 10 -10 m-104 10 h10 m74 0 h10 m-134 -88 l20 0 m-1 0 q-9 0 -9 -10 l0 -12 q0 -10 10 -10 m134 32 l20 0 m-20 0 q10 0 10 -10 l0 -12 q0 -10 -10 -10 m-134 0 h10 m0 0 h124 m-174 32 h20 m174 0 h20 m-214 0 q10 0 10 10 m194 0 q0 -10 10 -10 m-204 10 v112 m194 0 v-112 m-194 112 q0 10 10 10 m174 0 q10 0 10 -10 m-184 10 h10 m66 0 h10 m0 0 h88 m23 -132 h-3"/>
   <polygon points="243 33 251 29 251 37"/>
   <polygon points="243 33 235 29 235 37"/>
</svg>
