<?xml version="1.0" encoding="UTF-8"?>
<svg xmlns="http://www.w3.org/2000/svg" width="363" height="149">
   <defs>
      <style type="text/css">
    @namespace "http://www.w3.org/2000/svg";
    .line                 {fill: none; stroke: #132E1A; stroke-width: 1;}
    .bold-line            {stroke: #060E08; shape-rendering: crispEdges; stroke-width: 2;}
    .thin-line            {stroke: #0E060C; shape-rendering: crispEdges}
    .filled               {fill: #132E1A; stroke: none;}
    text.terminal         {font-family: Verdana, Sans-serif;
                            font-size: 12px;
                            fill: #060E08;
                            font-weight: bold;
                          }
    text.nonterminal      {font-family: Verdana, Sans-serif;
                            font-size: 12px;
                            fill: #06080E;
                            font-weight: normal;
                          }
    text.regexp           {font-family: Verdana, Sans-serif;
                            font-size: 12px;
                            fill: #0E060C;
                            font-weight: normal;
                          }
    rect, circle, polygon {fill: #132E1A; stroke: #132E1A;}
    rect.terminal         {fill: #c6e7ce; stroke: #132E1A; stroke-width: 1;}
    rect.nonterminal      {fill: #C6CEE7; stroke: #132E1A; stroke-width: 1;}
    rect.text             {fill: none; stroke: none;}
    polygon.regexp        {fill: #E7C6DF; stroke: #132E1A; stroke-width: 1;}
  </style>
   </defs>
   <polygon points="9 51 1 47 1 55"/>
   <polygon points="17 51 9 47 9 55"/>
   <rect x="51" y="37" width="26" height="32" rx="10"/>
   <rect x="49"
         y="35"
         width="26"
         height="32"
         class="terminal"
         rx="10"/>
   <text class="terminal" x="59" y="55">"</text>
   <polygon points="117 19 124 3 242 3 249 19 242 35 124 35"/>
   <polygon points="115 17 122 1 240 1 247 17 240 33 122 33" class="regexp"/>
   <text class="regexp" x="130" y="21">[^"#x9#xA#xD]</text>
   <rect x="289" y="37" width="26" height="32" rx="10"/>
   <rect x="287"
         y="35"
         width="26"
         height="32"
         class="terminal"
         rx="10"/>
   <text class="terminal" x="297" y="55">"</text>
   <rect x="51" y="115" width="24" height="32" rx="10"/>
   <rect x="49"
         y="113"
         width="24"
         height="32"
         class="terminal"
         rx="10"/>
   <text class="terminal" x="59" y="133">'</text>
   <polygon points="115 97 122 81 238 81 245 97 238 113 122 113"/>
   <polygon points="113 95 120 79 236 79 243 95 236 111 120 111" class="regexp"/>
   <text class="regexp" x="128" y="99">[^'#x9#xA#xD]</text>
   <rect x="285" y="115" width="24" height="32" rx="10"/>
   <rect x="283"
         y="113"
         width="24"
         height="32"
         class="terminal"
         rx="10"/>
   <text class="terminal" x="293" y="133">'</text>
   <path class="line"
         d="m17 51 h2 m20 0 h10 m26 0 h10 m20 0 h10 m0 0 h142 m-172 0 l20 0 m-1 0 q-9 0 -9 -10 l0 -14 q0 -10 10 -10 m152 34 l20 0 m-20 0 q10 0 10 -10 l0 -14 q0 -10 -10 -10 m-152 0 h10 m132 0 h10 m20 34 h10 m26 0 h10 m-304 0 h20 m284 0 h20 m-324 0 q10 0 10 10 m304 0 q0 -10 10 -10 m-314 10 v58 m304 0 v-58 m-304 58 q0 10 10 10 m284 0 q10 0 10 -10 m-294 10 h10 m24 0 h10 m20 0 h10 m0 0 h140 m-170 0 l20 0 m-1 0 q-9 0 -9 -10 l0 -14 q0 -10 10 -10 m150 34 l20 0 m-20 0 q10 0 10 -10 l0 -14 q0 -10 -10 -10 m-150 0 h10 m130 0 h10 m20 34 h10 m24 0 h10 m0 0 h6 m23 -78 h-3"/>
   <polygon points="353 51 361 47 361 55"/>
   <polygon points="353 51 345 47 345 55"/>
</svg>
