<?xml version="1.0" encoding="UTF-8"?>
<svg xmlns="http://www.w3.org/2000/svg" width="297" height="125">
   <defs>
      <style type="text/css">
    @namespace "http://www.w3.org/2000/svg";
    .line                 {fill: none; stroke: #132E1A; stroke-width: 1;}
    .bold-line            {stroke: #060E08; shape-rendering: crispEdges; stroke-width: 2;}
    .thin-line            {stroke: #0E060C; shape-rendering: crispEdges}
    .filled               {fill: #132E1A; stroke: none;}
    text.terminal         {font-family: Verdana, Sans-serif;
                            font-size: 12px;
                            fill: #060E08;
                            font-weight: bold;
                          }
    text.nonterminal      {font-family: Verdana, Sans-serif;
                            font-size: 12px;
                            fill: #06080E;
                            font-weight: normal;
                          }
    text.regexp           {font-family: Verdana, Sans-serif;
                            font-size: 12px;
                            fill: #0E060C;
                            font-weight: normal;
                          }
    rect, circle, polygon {fill: #132E1A; stroke: #132E1A;}
    rect.terminal         {fill: #c6e7ce; stroke: #132E1A; stroke-width: 1;}
    rect.nonterminal      {fill: #C6CEE7; stroke: #132E1A; stroke-width: 1;}
    rect.text             {fill: none; stroke: none;}
    polygon.regexp        {fill: #E7C6DF; stroke: #132E1A; stroke-width: 1;}
  </style>
   </defs>
   <polygon points="9 17 1 13 1 21"/>
   <polygon points="17 17 9 13 9 21"/>
   <a xmlns:xlink="http://www.w3.org/1999/xlink"
      xlink:href="#NameOrString"
      xlink:title="NameOrString">
      <rect x="51" y="3" width="108" height="32"/>
      <rect x="49" y="1" width="108" height="32" class="nonterminal"/>
      <text class="nonterminal" x="59" y="21">NameOrString</text>
   </a>
   <rect x="51" y="47" width="26" height="32" rx="10"/>
   <rect x="49"
         y="45"
         width="26"
         height="32"
         class="terminal"
         rx="10"/>
   <text class="terminal" x="59" y="65">(</text>
   <a xmlns:xlink="http://www.w3.org/1999/xlink"
      xlink:href="#SyntaxChoice"
      xlink:title="SyntaxChoice">
      <rect x="97" y="47" width="106" height="32"/>
      <rect x="95" y="45" width="106" height="32" class="nonterminal"/>
      <text class="nonterminal" x="105" y="65">SyntaxChoice</text>
   </a>
   <rect x="223" y="47" width="26" height="32" rx="10"/>
   <rect x="221"
         y="45"
         width="26"
         height="32"
         class="terminal"
         rx="10"/>
   <text class="terminal" x="231" y="65">)</text>
   <a xmlns:xlink="http://www.w3.org/1999/xlink"
      xlink:href="#ProcessingInstruction"
      xlink:title="ProcessingInstruction">
      <rect x="51" y="91" width="156" height="32"/>
      <rect x="49" y="89" width="156" height="32" class="nonterminal"/>
      <text class="nonterminal" x="59" y="109">ProcessingInstruction</text>
   </a>
   <path class="line"
         d="m17 17 h2 m20 0 h10 m108 0 h10 m0 0 h90 m-238 0 h20 m218 0 h20 m-258 0 q10 0 10 10 m238 0 q0 -10 10 -10 m-248 10 v24 m238 0 v-24 m-238 24 q0 10 10 10 m218 0 q10 0 10 -10 m-228 10 h10 m26 0 h10 m0 0 h10 m106 0 h10 m0 0 h10 m26 0 h10 m-228 -10 v20 m238 0 v-20 m-238 20 v24 m238 0 v-24 m-238 24 q0 10 10 10 m218 0 q10 0 10 -10 m-228 10 h10 m156 0 h10 m0 0 h42 m23 -88 h-3"/>
   <polygon points="287 17 295 13 295 21"/>
   <polygon points="287 17 279 13 279 21"/>
</svg>
