<?xml version="1.0" encoding="UTF-8"?>
<svg xmlns="http://www.w3.org/2000/svg" width="423" height="71">
   <defs>
      <style type="text/css">
    @namespace "http://www.w3.org/2000/svg";
    .line                 {fill: none; stroke: #132E1A; stroke-width: 1;}
    .bold-line            {stroke: #060E08; shape-rendering: crispEdges; stroke-width: 2;}
    .thin-line            {stroke: #0E060C; shape-rendering: crispEdges}
    .filled               {fill: #132E1A; stroke: none;}
    text.terminal         {font-family: Verdana, Sans-serif;
                            font-size: 12px;
                            fill: #060E08;
                            font-weight: bold;
                          }
    text.nonterminal      {font-family: Verdana, Sans-serif;
                            font-size: 12px;
                            fill: #06080E;
                            font-weight: normal;
                          }
    text.regexp           {font-family: Verdana, Sans-serif;
                            font-size: 12px;
                            fill: #0E060C;
                            font-weight: normal;
                          }
    rect, circle, polygon {fill: #132E1A; stroke: #132E1A;}
    rect.terminal         {fill: #c6e7ce; stroke: #132E1A; stroke-width: 1;}
    rect.nonterminal      {fill: #C6CEE7; stroke: #132E1A; stroke-width: 1;}
    rect.text             {fill: none; stroke: none;}
    polygon.regexp        {fill: #E7C6DF; stroke: #132E1A; stroke-width: 1;}
  </style>
   </defs>
   <polygon points="9 51 1 47 1 55"/>
   <polygon points="17 51 9 47 9 55"/>
   <a xmlns:xlink="http://www.w3.org/1999/xlink"
      xlink:href="#Name"
      xlink:title="Name">
      <rect x="31" y="37" width="56" height="32"/>
      <rect x="29" y="35" width="56" height="32" class="nonterminal"/>
      <text class="nonterminal" x="39" y="55">Name</text>
   </a>
   <rect x="107" y="37" width="40" height="32" rx="10"/>
   <rect x="105"
         y="35"
         width="40"
         height="32"
         class="terminal"
         rx="10"/>
   <text class="terminal" x="115" y="55">::=</text>
   <a xmlns:xlink="http://www.w3.org/1999/xlink"
      xlink:href="#SyntaxChoice"
      xlink:title="SyntaxChoice">
      <rect x="167" y="37" width="106" height="32"/>
      <rect x="165" y="35" width="106" height="32" class="nonterminal"/>
      <text class="nonterminal" x="175" y="55">SyntaxChoice</text>
   </a>
   <a xmlns:xlink="http://www.w3.org/1999/xlink"
      xlink:href="#Option"
      xlink:title="Option">
      <rect x="313" y="3" width="62" height="32"/>
      <rect x="311" y="1" width="62" height="32" class="nonterminal"/>
      <text class="nonterminal" x="321" y="21">Option</text>
   </a>
   <path class="line"
         d="m17 51 h2 m0 0 h10 m56 0 h10 m0 0 h10 m40 0 h10 m0 0 h10 m106 0 h10 m20 0 h10 m0 0 h72 m-102 0 l20 0 m-1 0 q-9 0 -9 -10 l0 -14 q0 -10 10 -10 m82 34 l20 0 m-20 0 q10 0 10 -10 l0 -14 q0 -10 -10 -10 m-82 0 h10 m62 0 h10 m23 34 h-3"/>
   <polygon points="413 51 421 47 421 55"/>
   <polygon points="413 51 405 47 405 55"/>
</svg>
