<?xml version="1.0" encoding="UTF-8"?>
<svg xmlns="http://www.w3.org/2000/svg" width="459" height="135">
   <defs>
      <style type="text/css">
    @namespace "http://www.w3.org/2000/svg";
    .line                 {fill: none; stroke: #132E1A; stroke-width: 1;}
    .bold-line            {stroke: #060E08; shape-rendering: crispEdges; stroke-width: 2;}
    .thin-line            {stroke: #0E060C; shape-rendering: crispEdges}
    .filled               {fill: #132E1A; stroke: none;}
    text.terminal         {font-family: Verdana, Sans-serif;
                            font-size: 12px;
                            fill: #060E08;
                            font-weight: bold;
                          }
    text.nonterminal      {font-family: Verdana, Sans-serif;
                            font-size: 12px;
                            fill: #06080E;
                            font-weight: normal;
                          }
    text.regexp           {font-family: Verdana, Sans-serif;
                            font-size: 12px;
                            fill: #0E060C;
                            font-weight: normal;
                          }
    rect, circle, polygon {fill: #132E1A; stroke: #132E1A;}
    rect.terminal         {fill: #c6e7ce; stroke: #132E1A; stroke-width: 1;}
    rect.nonterminal      {fill: #C6CEE7; stroke: #132E1A; stroke-width: 1;}
    rect.text             {fill: none; stroke: none;}
    polygon.regexp        {fill: #E7C6DF; stroke: #132E1A; stroke-width: 1;}
  </style>
   </defs>
   <polygon points="9 33 1 29 1 37"/>
   <polygon points="17 33 9 29 9 37"/>
   <a xmlns:xlink="http://www.w3.org/1999/xlink"
      xlink:href="#SyntaxSequence"
      xlink:title="SyntaxSequence">
      <rect x="31" y="19" width="126" height="32"/>
      <rect x="29" y="17" width="126" height="32" class="nonterminal"/>
      <text class="nonterminal" x="39" y="37">SyntaxSequence</text>
   </a>
   <rect x="217" y="19" width="26" height="32" rx="10"/>
   <rect x="215"
         y="17"
         width="26"
         height="32"
         class="terminal"
         rx="10"/>
   <text class="terminal" x="225" y="37">|</text>
   <a xmlns:xlink="http://www.w3.org/1999/xlink"
      xlink:href="#SyntaxSequence"
      xlink:title="SyntaxSequence">
      <rect x="263" y="19" width="126" height="32"/>
      <rect x="261" y="17" width="126" height="32" class="nonterminal"/>
      <text class="nonterminal" x="271" y="37">SyntaxSequence</text>
   </a>
   <rect x="217" y="85" width="28" height="32" rx="10"/>
   <rect x="215"
         y="83"
         width="28"
         height="32"
         class="terminal"
         rx="10"/>
   <text class="terminal" x="225" y="103">/</text>
   <a xmlns:xlink="http://www.w3.org/1999/xlink"
      xlink:href="#SyntaxSequence"
      xlink:title="SyntaxSequence">
      <rect x="265" y="85" width="126" height="32"/>
      <rect x="263" y="83" width="126" height="32" class="nonterminal"/>
      <text class="nonterminal" x="273" y="103">SyntaxSequence</text>
   </a>
   <path class="line"
         d="m17 33 h2 m0 0 h10 m126 0 h10 m40 0 h10 m26 0 h10 m0 0 h10 m126 0 h10 m-212 0 l20 0 m-1 0 q-9 0 -9 -10 l0 -12 q0 -10 10 -10 m192 32 l20 0 m-20 0 q10 0 10 -10 l0 -12 q0 -10 -10 -10 m-192 0 h10 m0 0 h182 m20 32 h2 m-254 0 h20 m234 0 h20 m-274 0 q10 0 10 10 m254 0 q0 -10 10 -10 m-264 10 v46 m254 0 v-46 m-254 46 q0 10 10 10 m234 0 q10 0 10 -10 m-224 10 h10 m28 0 h10 m0 0 h10 m126 0 h10 m-214 0 l20 0 m-1 0 q-9 0 -9 -10 l0 -12 q0 -10 10 -10 m194 32 l20 0 m-20 0 q10 0 10 -10 l0 -12 q0 -10 -10 -10 m-194 0 h10 m0 0 h184 m-224 22 v20 m254 0 v-20 m-254 20 v14 m254 0 v-14 m-254 14 q0 10 10 10 m234 0 q10 0 10 -10 m-244 10 h10 m0 0 h224 m23 -100 h-3"/>
   <polygon points="449 33 457 29 457 37"/>
   <polygon points="449 33 441 29 441 37"/>
</svg>
